<?xml version="1.0" encoding="utf-8"?>
<!-- Generator: Adobe Illustrator 19.0.0, SVG Export Plug-In . SVG Version: 6.00 Build 0)  -->
<svg version="1.1" id="Layer_1" xmlns="http://www.w3.org/2000/svg" xmlns:xlink="http://www.w3.org/1999/xlink" x="0px" y="0px"
	 viewBox="-82 83.3 27 26.7" style="enable-background:new -82 83.3 27 26.7;" xml:space="preserve">
<style type="text/css">
	.st0{fill:#FFFFFF;}
	.st1{fill:#888B8E;}
</style>
<g>
	<path class="st0" d="M-69.6,109.2c0,0,2.6,0.3,4.6-0.5c2-0.8,2-4.6,2-4.6l2.3-5.9l0.7-5.7l-1.3-4.1c0,0-2.3-0.9-2.7-0.8
		c-0.4,0.1-5.7,0-5.7,0L-75,92l1.4,7.8l3.4,8.7L-69.6,109.2z"/>
	<g>
		<path class="st1" d="M-65.5,108.8v-9.5h2.7l0.5-3.1h-3.1v-2.7c0-0.9,0.5-1.4,1.4-1.4h2v-3c0,0-0.9-0.2-2.2-0.2
			c-3,0-4.5,1.7-4.5,4.2v3.1h-2.8v3.1h2.8v9.9c-6.9-0.2-12.4-5.7-12.4-12.5c0-6.9,5.6-12.5,12.5-12.5s12.5,5.6,12.5,12.5
			C-56.1,102.5-60.1,107.4-65.5,108.8z"/>
	</g>
</g>
</svg>
